<svg width="457" height="532" viewBox="0 0 457 532" fill="none" xmlns="http://www.w3.org/2000/svg">
<path d="M32.9205 0C51.0404 0 65.8774 14.6912 65.7315 32.8112C65.6722 40.2115 63.6796 46.6725 58.8328 52.4678C60.8299 56.9317 66.3151 60.4244 72.1104 62.8957C63.9623 64.8199 56.3614 63.2057 51.3413 59.9684C46.0886 63.5386 39.7462 65.6269 32.9205 65.6269C14.8006 65.6269 0.109505 50.9357 0.109505 32.8157C0.109505 14.6957 14.8006 0.00455018 32.9205 0.00455018V0Z" fill="#149346"/>
<path d="M27.3797 45.255L16.1175 31.5806C15.8758 31.2888 15.9169 30.8602 16.2087 30.6185C16.5005 30.3814 16.9291 30.4179 17.1708 30.7143L27.1016 42.7745L47.1448 20.0766C47.3181 19.7392 47.733 19.607 48.0658 19.7757C48.4033 19.949 48.5355 20.3593 48.3668 20.6968L27.3752 45.255H27.3797Z" fill="white"/>
<path d="M276.339 478.434L293.356 531.745L361.075 502.162C350.246 487.954 331.438 484.535 316.336 489.094L310.067 464.299L276.344 478.434H276.339Z" fill="#D6DCE0"/>
<path d="M276.339 478.434L293.356 531.745L361.075 502.162C350.246 487.954 331.438 484.535 316.336 489.094L310.067 464.299L276.344 478.434H276.339Z" fill="black" fill-opacity="0.08"/>
<path d="M218.677 349.573L218.964 349.677L219.073 349.962L270.507 485.576L326.348 463.239L296.866 331.313C294.641 321.467 290.089 312.299 283.6 304.569C273.493 292.535 259.266 284.697 243.694 282.577L131.394 267.293L89.2154 265.983L88.8794 302.618L218.677 349.573Z" fill="#F5F6F7" stroke="#093E4D" stroke-width="1.33"/>
<path d="M252.913 475.315L271.006 532L347.056 500.543C333.842 488.168 318.59 484.899 301.391 490.307L290.671 460.026L252.909 475.31L252.913 475.315Z" fill="#D6DCE0"/>
<path d="M193.152 346.535L249.709 493.561L256.346 490.903L256.346 490.903L292.308 476.517L305.544 471.222L267.517 312.775C263.159 296.991 250.142 285.107 234.041 282.175C234.041 282.175 234.041 282.175 234.041 282.175L153.829 267.585L153.828 267.585L143.821 265.769L63.2997 262.561L63.0783 285.868L63.0783 285.868L62.9552 299.661L62.9538 299.815L62.9495 299.824C62.829 322.477 80.6296 341.203 103.297 342.202L192.56 346.11L192.995 346.129L193.152 346.535Z" fill="#F5F6F7" stroke="#093E4D" stroke-width="1.33"/>
<path opacity="0.1" d="M62.4082 285.871L153.942 266.934L143.888 265.111L62.6362 261.873L62.4082 285.871Z" fill="black"/>
<path d="M293.817 505.053C294.223 505.053 294.615 504.839 294.82 504.456L302.23 490.777C302.531 490.22 302.325 489.532 301.769 489.231C301.213 488.93 300.524 489.135 300.223 489.691L292.814 503.37C292.513 503.927 292.718 504.615 293.275 504.916C293.448 505.007 293.635 505.053 293.817 505.053Z" fill="#093E4D"/>
<path d="M255.147 464.472C262.985 460.505 269.445 454.404 276.714 449.562C283.43 445.084 290.953 442.038 298.873 440.566L299.165 441.783C290.743 443.365 282.632 446.753 275.419 451.828C268.069 457.003 261.297 463.264 252.903 466.761C248.631 468.539 244.158 469.319 239.667 469.3L239.197 468.083C244.486 468.206 249.835 467.167 255.147 464.476V464.472Z" fill="#093E4D"/>
<path d="M110.379 83.1128H139.022V121.87H110.379V83.1128Z" fill="#F9B384"/>
<path opacity="0.1" d="M115.996 98.2422C119.279 105.136 130.2 113.759 139.022 117.475V95.2009L115.996 98.2468V98.2422Z" fill="black"/>
<path d="M111.818 83.1581L112.73 86.8743L115.853 99.5273C116.278 99.81 116.72 100.097 117.199 100.371C122.693 103.549 131.94 106.102 139.016 105.897C142.55 105.797 145.537 105.017 147.269 103.289C149.631 100.927 151.154 96.5316 152.125 91.5479C152.567 89.2772 152.9 86.897 153.151 84.5124C153.689 79.3508 153.812 74.2304 153.812 70.5599C153.826 67.2906 153.721 65.1704 153.721 65.1704L134.252 55.7091L115.16 61.2719L113.464 72.4202L112.589 78.1517L111.836 83.1126L111.827 83.1581H111.818Z" fill="#F9B384"/>
<path d="M108.569 78.0566C100.922 52.1898 108.012 33.4177 143.614 46.7684C174.209 31.0558 180.05 91.2705 125.398 63.1785C120.405 66.5116 116.475 71.1853 114.414 78.198L108.573 78.0612L108.569 78.0566Z" fill="#102048"/>
<path d="M104.752 82.1274C103.153 78.246 104.773 73.8981 108.371 72.4161C111.968 70.9342 116.181 72.8792 117.78 76.7606C119.379 80.6421 117.759 84.99 114.161 86.4719C110.564 87.9539 106.351 86.0088 104.752 82.1274Z" fill="#F9B384"/>
<path d="M138.727 74.368C138.996 75.2024 137.176 75.4669 134.751 75.6949C132.32 75.9229 129.776 76.5521 129.721 75.9776C129.667 75.4031 131.901 73.4835 134.331 73.2555C136.761 73.0275 138.289 73.0001 138.731 74.368H138.727Z" fill="black"/>
<path d="M144.922 75.3573C144.757 76.1963 146.317 76.3923 148.391 76.5291C150.466 76.6659 152.673 77.1948 152.673 76.6203C152.673 76.0458 150.639 74.2174 148.565 74.0806C146.49 73.9438 145.195 73.9757 144.922 75.3573Z" fill="black"/>
<path d="M135.869 82.1048C135.084 82.1048 134.447 81.276 134.447 80.2536C134.447 79.2312 135.084 78.4024 135.869 78.4024C136.655 78.4024 137.292 79.2312 137.292 80.2536C137.292 81.276 136.655 82.1048 135.869 82.1048Z" fill="black"/>
<path d="M147.557 82.1054C146.771 82.1054 146.134 81.2766 146.134 80.2542C146.134 79.2318 146.771 78.403 147.557 78.403C148.343 78.403 148.979 79.2318 148.979 80.2542C148.979 81.2766 148.343 82.1054 147.557 82.1054Z" fill="black"/>
<path d="M112.837 83.7699C113.097 83.7699 113.329 83.5921 113.393 83.3276C113.927 81.0204 113.63 78.9002 112.591 77.5186C111.857 76.5474 110.821 76.0003 109.59 75.9364C109.28 75.9273 109.007 76.1598 108.993 76.4745C108.975 76.7891 109.217 77.0581 109.531 77.0718C110.416 77.1174 111.154 77.5095 111.679 78.2026C112.518 79.3197 112.737 81.0934 112.281 83.0723C112.212 83.3778 112.399 83.6833 112.709 83.7562C112.755 83.7653 112.796 83.7699 112.837 83.7699Z" fill="black"/>
<path d="M4.058 218.58L53.4614 218.375V259.421C53.4614 260.46 53.5982 261.464 53.8489 262.416C55.1849 267.446 59.7765 271.148 65.2252 271.116L172.992 270.309C179.101 270.264 183.853 264.974 183.237 258.887L179.225 219.515L205.442 181.328L199.301 159.428C194.946 143.916 183.128 131.605 167.807 126.621L138.749 117.196L124.099 121.811L113.872 115.227L80.1807 119.531C63.1597 121.706 48.2406 131.947 40.0789 147.039L9.40184 203.784C6.88493 208.435 5.09302 213.428 4.05344 218.58H4.058Z" fill="#2873B9"/>
<path d="M154.226 199.361L147.591 199.202L90.5962 172.633C89.2648 172.013 88.6903 170.431 89.3104 169.099C89.9305 167.768 91.5127 167.193 92.8441 167.813L149.839 194.382L154.226 199.361Z" fill="#093E4D"/>
<path d="M138.982 113.111L124.291 121.948L135.685 132.358L151.521 121.661L138.982 113.111Z" fill="#2467A7"/>
<path d="M138.982 113.111L124.291 121.948L135.685 132.358L151.521 121.661L138.982 113.111Z" fill="white" fill-opacity="0.1"/>
<path d="M124.29 121.948L112.316 131.026L101.364 116.723L110.297 110.645L124.29 121.948Z" fill="#2467A7"/>
<path d="M124.29 121.948L112.316 131.026L101.364 116.723L110.297 110.645L124.29 121.948Z" fill="white" fill-opacity="0.1"/>
<path d="M135.621 132.836L151.894 122.239C152.214 122.034 152.3 121.61 152.095 121.291C151.89 120.976 151.461 120.885 151.147 121.09L135.744 131.121L124.332 121.077L112.262 129.895L101.907 116.312C101.679 116.011 101.246 115.952 100.95 116.184C100.649 116.412 100.59 116.841 100.818 117.142L111.984 131.792L124.25 122.832L135.621 132.84V132.836Z" fill="#093E4D"/>
<path opacity="0.1" d="M53.4607 222.023V259.421C53.4607 260.46 53.5975 261.464 53.8483 262.417C72.5016 253.238 90.0607 238.743 107.036 221.416L53.4607 222.018V222.023Z" fill="black"/>
<path d="M92.5911 188.738L112.772 172.05C113.998 171.033 115.731 170.901 117.099 171.717L132.989 181.069C133.582 181.42 134.029 181.971 134.243 182.628L136.19 188.592C137.376 190.863 137.795 193.389 137.854 196.033C138.11 197.164 137.339 198.268 136.19 198.423L136.482 204.683C136.555 206.288 135.365 207.67 133.764 207.829L132.893 211.545C132.533 213.082 130.851 213.903 129.419 213.237L122.078 209.826L107.027 221.417L91.5879 208.54L92.5865 188.733L92.5911 188.738Z" fill="#F9B384"/>
<path d="M136.49 189.413C136.763 189.413 137.019 189.249 137.124 188.98C137.265 188.629 137.092 188.232 136.741 188.091L122.861 182.592C122.51 182.45 122.113 182.624 121.972 182.975C121.831 183.326 122.004 183.723 122.355 183.864L136.234 189.363C136.317 189.395 136.403 189.413 136.485 189.413H136.49Z" fill="black" fill-opacity="0.1"/>
<path d="M136.194 199.111C136.463 199.111 136.718 198.951 136.823 198.687C136.969 198.34 136.804 197.939 136.453 197.793L126.194 193.516C125.848 193.37 125.447 193.534 125.301 193.886C125.155 194.232 125.319 194.633 125.67 194.779L135.929 199.056C136.016 199.093 136.102 199.111 136.194 199.111Z" fill="black" fill-opacity="0.1"/>
<path d="M133.768 208.514C134.001 208.514 134.224 208.4 134.352 208.19C134.548 207.866 134.448 207.447 134.128 207.251L125.625 202.025C125.296 201.829 124.882 201.929 124.686 202.249C124.489 202.572 124.59 202.992 124.909 203.188L133.413 208.413C133.527 208.482 133.65 208.514 133.768 208.514Z" fill="black" fill-opacity="0.1"/>
<path d="M3.04053 230.9C3.22292 236.381 5.26563 241.456 8.58047 245.446C11.909 249.449 16.5278 252.367 21.8854 253.548C23.5952 253.927 25.3142 254.109 27.0515 254.109C30.3481 254.109 33.6264 253.439 36.6814 252.103L107.036 221.416L92.5959 188.737L4.05731 218.58C3.23659 222.616 2.89462 226.751 3.0451 230.9H3.04053Z" fill="#2873B9"/>
<path d="M26.3219 212.972C26.3994 212.972 26.477 212.958 26.5499 212.931L92.8194 189.38C93.175 189.253 93.3619 188.861 93.2342 188.505C93.1066 188.149 92.719 187.962 92.3588 188.09L26.0894 211.641C25.7338 211.768 25.5468 212.16 25.6745 212.516C25.7748 212.794 26.0393 212.972 26.3174 212.972H26.3219Z" fill="#093E4D"/>
<path d="M175.594 209.963C175.95 209.963 176.255 209.685 176.273 209.324L179.338 160.924C179.36 160.545 179.073 160.222 178.699 160.199C178.334 160.167 177.997 160.459 177.974 160.837L174.91 209.238C174.887 209.616 175.175 209.94 175.549 209.963C175.562 209.963 175.58 209.963 175.594 209.963Z" fill="#093E4D"/>
<path d="M56.0061 201.979C56.2979 201.979 56.5669 201.792 56.6581 201.5L68.9143 162.593C69.0283 162.233 68.8277 161.85 68.4675 161.736C68.1073 161.617 67.7243 161.822 67.6103 162.183L55.354 201.085C55.2401 201.446 55.4407 201.829 55.8009 201.943C55.8693 201.965 55.9377 201.974 56.0061 201.974V201.979Z" fill="#093E4D"/>
<path d="M243.06 175.629L176.945 176.769L132.489 253.713L200.313 252.573L243.06 175.629Z" fill="#FFA121"/>
<path d="M219.659 175.054L217.143 179.824C216.887 180.307 216.395 180.612 215.852 180.626L202.255 180.973C201.161 181 200.404 179.887 200.833 178.88L202.816 174.22C203.044 173.682 203.564 173.326 204.152 173.308L218.278 172.852C219.432 172.815 220.193 174.037 219.655 175.054H219.659Z" fill="#093E4D"/>
<path d="M233.652 210.104C216.69 199.07 197.695 188.592 201.826 201.181C196.947 200.319 194.877 203.05 198.219 207.674C193.13 207.209 191.845 210.099 198.301 217.486C188.347 216.269 196.66 226.099 213.279 237.567C215.865 239.354 218.91 240.375 222.052 240.503L223.931 240.581C229.826 240.822 235.407 237.909 238.581 232.939C241.686 228.074 242.041 221.945 239.511 216.752L239.497 216.72C238.184 214.025 236.169 211.732 233.656 210.095L233.652 210.104Z" fill="#F9B384"/>
<path d="M220.173 213.206C220.401 213.206 220.625 213.092 220.757 212.882C220.953 212.558 220.857 212.139 220.534 211.938L202.186 200.598C201.862 200.402 201.442 200.502 201.242 200.822C201.046 201.145 201.142 201.565 201.465 201.765L219.813 213.105C219.927 213.174 220.05 213.206 220.173 213.206Z" fill="black" fill-opacity="0.1"/>
<path d="M215.601 218.768C215.834 218.768 216.062 218.65 216.189 218.436C216.381 218.112 216.281 217.692 215.952 217.496L198.571 207.087C198.243 206.895 197.828 207 197.632 207.324C197.44 207.648 197.541 208.067 197.869 208.263L215.25 218.673C215.36 218.737 215.483 218.768 215.601 218.768Z" fill="black" fill-opacity="0.1"/>
<path d="M213.676 228.736C213.895 228.736 214.109 228.631 214.241 228.439C214.456 228.129 214.378 227.701 214.064 227.491L198.684 216.926C198.374 216.712 197.945 216.794 197.736 217.104C197.521 217.414 197.599 217.843 197.913 218.057L213.293 228.622C213.412 228.704 213.548 228.74 213.681 228.74L213.676 228.736Z" fill="black" fill-opacity="0.1"/>
<path d="M123.095 141.194C121.6 141.194 120.387 139.982 120.387 138.486C120.387 136.99 121.6 135.777 123.095 135.777C124.591 135.777 125.804 136.99 125.804 138.486C125.804 139.982 124.591 141.194 123.095 141.194Z" fill="#093E4D"/>
<path d="M375.26 254.324C375.465 254.324 375.67 254.27 375.857 254.156C376.391 253.823 376.559 253.121 376.226 252.587L320.686 162.895L306.437 161.705C305.794 161.654 305.256 162.119 305.206 162.744C305.156 163.373 305.621 163.92 306.245 163.975L319.354 165.065L374.289 253.782C374.503 254.128 374.877 254.32 375.26 254.32V254.324Z" fill="#D6DCE0"/>
<path d="M316.476 117.722L301.374 106.788L283.523 220.068L300.923 216.42L316.476 117.722Z" fill="#2873B9"/>
<path d="M455.473 531.181C455.628 531.181 455.783 531.149 455.933 531.085C456.508 530.83 456.767 530.16 456.512 529.58L334.588 254.219C334.333 253.645 333.663 253.385 333.083 253.64C332.509 253.895 332.249 254.566 332.504 255.145L454.428 530.506C454.615 530.93 455.035 531.185 455.473 531.185V531.181Z" fill="#D6DCE0"/>
<path d="M105.692 531.181C106.129 531.181 106.544 530.931 106.736 530.502L228.66 255.141C228.915 254.566 228.66 253.892 228.081 253.636C227.506 253.376 226.832 253.641 226.576 254.215L104.652 529.576C104.397 530.151 104.652 530.826 105.231 531.081C105.382 531.15 105.537 531.177 105.692 531.177V531.181Z" fill="#D6DCE0"/>
<path d="M110.874 252.88H450.282V261.046H110.874V252.88Z" fill="#D6DCE0"/>
<path d="M142.552 82.2321C142.655 83.3615 142.253 84.4167 142.266 85.3196C142.273 85.776 142.347 86.2001 142.54 86.5057C142.713 86.8017 143.061 87.0692 143.499 87.4181C143.951 87.7777 144.388 88.3018 144.595 88.9435C144.832 89.5777 144.664 90.5001 144.124 90.9683C143.622 91.4487 143.06 91.625 142.57 91.7938C142.069 91.9428 141.577 92.1177 141.064 92.2429L140.864 91.7893C141.303 91.4953 141.761 91.25 142.212 90.9828C142.667 90.7366 143.089 90.49 143.31 90.2073C143.741 89.7282 143.381 88.9463 142.688 88.3822C142.338 88.0677 141.8 87.7208 141.474 87.0854C141.161 86.4738 141.116 85.8198 141.196 85.2445C141.346 84.0611 141.871 83.1737 142.055 82.2098L142.55 82.2281L142.552 82.2321Z" fill="#E28B6D"/>
<path d="M133.776 94.9463C136.202 99.7983 140.023 100.7 143.517 96.2266L133.776 94.9463Z" fill="white"/>
</svg>
